<svg width="23" height="22" viewBox="0 0 23 22" fill="none" xmlns="http://www.w3.org/2000/svg">
<path fill-rule="evenodd" clip-rule="evenodd" d="M16.3648 14.1883L22.4033 20.1062C22.6156 20.3143 22.7347 20.5966 22.7346 20.8909C22.7345 21.1851 22.6151 21.4673 22.4027 21.6753C22.1904 21.8833 21.9023 22.0001 21.6021 22C21.3018 21.9999 21.0139 21.8829 20.8016 21.6747L14.7632 15.7569C12.958 17.1271 10.688 17.7719 8.41502 17.5601C6.142 17.3483 4.03667 16.2959 2.52733 14.6169C1.01798 12.9379 0.218003 10.7584 0.29013 8.52184C0.362257 6.28529 1.30107 4.15967 2.91559 2.57741C4.5301 0.995143 6.69905 0.0750819 8.98118 0.00439586C11.2633 -0.0662901 13.4872 0.717709 15.2005 2.1969C16.9137 3.67609 17.9876 5.73937 18.2037 7.96699C18.4198 10.1946 17.7618 12.4192 16.3637 14.1883H16.3648ZM9.26565 15.3994C11.0517 15.3994 12.7646 14.704 14.0276 13.4663C15.2905 12.2286 16 10.5499 16 8.79953C16 7.04914 15.2905 5.37044 14.0276 4.13272C12.7646 2.89501 11.0517 2.19967 9.26565 2.19967C7.47958 2.19967 5.76667 2.89501 4.50373 4.13272C3.24079 5.37044 2.53127 7.04914 2.53127 8.79953C2.53127 10.5499 3.24079 12.2286 4.50373 13.4663C5.76667 14.704 7.47958 15.3994 9.26565 15.3994V15.3994Z" fill="#FFAF0F"/>
</svg>
